<svg id="Layer_1" data-name="Layer 1" xmlns="http://www.w3.org/2000/svg" viewBox="0 0 12 12"><defs><style>.cls-1{fill:#405cff;}</style></defs><path class="cls-1" d="M2.60376,3.63055h.48505V.54077c-.00629,0-.01282-.002-.01911-.002a2.5432,2.5432,0,0,0-.46594.06811Z"/><path class="cls-1" d="M8.38116,7.62726a3.18221,3.18221,0,0,0,.44819-.213A6.31862,6.31862,0,0,0,3.69513,4.25873v.50378A5.82692,5.82692,0,0,1,8.38116,7.62726Z"/><path class="cls-1" d="M8.67236,8.17834a6.03586,6.03586,0,0,1,.36725,1.034q.19748-.21552.38489-.42779a6.55648,6.55648,0,0,0-.30884-.82294A3.72424,3.72424,0,0,1,8.67236,8.17834Z"/><path class="cls-1" d="M9.40112,1.74146A3.274,3.274,0,0,0,7.56622.89069a3.14385,3.14385,0,0,0-1.08831.99951L8.43024,4.21613a.45168.45168,0,0,1-.04633.62652.427.427,0,0,1-.61212-.04742q-.8726-1.03968-1.7453-2.07935-.48111-.57321-.96228-1.14642A2.73171,2.73171,0,0,0,4.29474.81537H3.69513V3.63776A6.92073,6.92073,0,0,1,9.32428,7.05188c.02557-.02362.05151-.04688.07611-.07141a3.55706,3.55706,0,0,0,.93109-2.62317A3.535,3.535,0,0,0,9.40112,1.74146Z"/><path class="cls-1" d="M8.9303.53882c-.08551-.00055-.16443.02435-.24817.03149a3.48035,3.48035,0,0,1,1.14068.72516,4.13478,4.13478,0,0,1,1.115,3.06183A4.15724,4.15724,0,0,1,9.82349,7.425c-.06427.06415-.132.12451-.20142.1831.09888.20569.184.41919.26349.63538.18915-.2298.3656-.45276.50976-.65613A7.63406,7.63406,0,0,0,11.92273,4.8786C12.35742,2.78729,10.90405.55121,8.9303.53882Z"/><path class="cls-1" d="M8.08771,8.36792a5.97815,5.97815,0,0,1-1.452.16528H5.08594V7.91254h1.5498a5.58448,5.58448,0,0,0,1.13617-.10883,5.21511,5.21511,0,0,0-4.07678-2.419V9.9931c.39362.4079.7832.79914,1.12628,1.13642a1.64884,1.64884,0,0,0,2.35718,0c.40912-.40216.88306-.87891,1.35266-1.37232A5.4225,5.4225,0,0,0,8.08771,8.36792Z"/><path class="cls-1" d="M1.9975.8009A3.73011,3.73011,0,0,0,.07727,4.8786,7.635,7.635,0,0,0,1.60461,7.58734c.1142.16113.24933.335.39289.51355Z"/><path class="cls-1" d="M2.60376,4.25122V8.817q.23565.26633.48505.53637V4.25122Z"/></svg>