<svg id="visual" viewBox="0 0 960 540" width="960" height="540" xmlns="http://www.w3.org/2000/svg" xmlns:xlink="http://www.w3.org/1999/xlink" version="1.1"><rect x="0" y="0" width="960" height="540" fill="#001220"></rect><path d="M0 372L22.8 362.3C45.7 352.7 91.3 333.3 137 334.5C182.7 335.7 228.3 357.3 274 368C319.7 378.7 365.3 378.3 411.2 369.5C457 360.7 503 343.3 548.8 332.2C594.7 321 640.3 316 686 319.3C731.7 322.7 777.3 334.3 823 334.8C868.7 335.3 914.3 324.7 937.2 319.3L960 314L960 541L937.2 541C914.3 541 868.7 541 823 541C777.3 541 731.7 541 686 541C640.3 541 594.7 541 548.8 541C503 541 457 541 411.2 541C365.3 541 319.7 541 274 541C228.3 541 182.7 541 137 541C91.3 541 45.7 541 22.8 541L0 541Z" fill="#fa7268"></path><path d="M0 369L22.8 374.7C45.7 380.3 91.3 391.7 137 397C182.7 402.3 228.3 401.7 274 404C319.7 406.3 365.3 411.7 411.2 405.8C457 400 503 383 548.8 380.7C594.7 378.3 640.3 390.7 686 396C731.7 401.3 777.3 399.7 823 391.2C868.7 382.7 914.3 367.3 937.2 359.7L960 352L960 541L937.2 541C914.3 541 868.7 541 823 541C777.3 541 731.7 541 686 541C640.3 541 594.7 541 548.8 541C503 541 457 541 411.2 541C365.3 541 319.7 541 274 541C228.3 541 182.7 541 137 541C91.3 541 45.7 541 22.8 541L0 541Z" fill="#ef5f67"></path><path d="M0 440L22.8 438C45.7 436 91.3 432 137 430C182.7 428 228.3 428 274 424.2C319.7 420.3 365.3 412.7 411.2 414.8C457 417 503 429 548.8 428.2C594.7 427.3 640.3 413.7 686 409.2C731.7 404.7 777.3 409.3 823 412.8C868.7 416.3 914.3 418.7 937.2 419.8L960 421L960 541L937.2 541C914.3 541 868.7 541 823 541C777.3 541 731.7 541 686 541C640.3 541 594.7 541 548.8 541C503 541 457 541 411.2 541C365.3 541 319.7 541 274 541C228.3 541 182.7 541 137 541C91.3 541 45.7 541 22.8 541L0 541Z" fill="#e34c67"></path><path d="M0 455L22.8 451.2C45.7 447.3 91.3 439.7 137 444C182.7 448.3 228.3 464.7 274 469.8C319.7 475 365.3 469 411.2 465.7C457 462.3 503 461.7 548.8 462.3C594.7 463 640.3 465 686 467.8C.8C868.7 471.3 914.3 464.7 937.2 461.3L960 458L960 541L937.2 541C914.3 541 868.7 541 823 541C777.3 541 731.7 541 686 541C640.3 541 594.7 541 548.8 541C503 541 457 541 411.2 541C365.3 541 319.7 541 274 541C228.3 541 182.7 541 137 541C91.3 541 45.7 541 22.8 541L0 541Z" fill="#d53867"></path><path d="M0 493L22.8 495.3C45.7 497.7 91.3 502.3 137 503.2C182.7 504 228.3 501 274 500.5C319.7 500 365.3 502 411.2 499C457 496 503 488 548.8 489.8C594.7 491.7 640.3 503.3 686 503.2C731.7 503 777.3 491 823 487.5C868.7 484 914.3 489 937.2 491.5L960 494L960 541L937.2 541C914.3 541 868.7 541 823 541C777.3 541 731.7 541 686 541C640.3 541 594.7 541 548.8 541C503 541 457 541 411.2 541C365.3 541 319.7 541 274 541C228.3 541 182.7 541 137 541C91.3 541 45.7 541 22.8 541L0 541Z" fill="#c62368"></path>731.7 470.7 777.3 474.3 823 472</svg>