<?xml version="1.0" standalone="no"?><svg xmlns="http://www.w3.org/2000/svg" viewBox="0 0 1440 320"><path fill="#0099ff" fill-opacity="1" d="M0,96L26.7,117.3C53.3,139,107,181,160,208C213.3,235,267,245,320,224C373.3,203,427,149,480,112C533.3,75,587,53,640,80C693.3,107,747,181,800,186.7C853.3,192,907,128,960,96C1013.3,64,1067,64,1120,96C1173.3,128,1227,192,1280,229.3C1333.3,267,1387,277,1413,282.7L1440,288L1440,320L1413.3,320C1386.7,320,1333,320,1280,320C1226.7,320,1173,320,1120,320C1066.7,320,1013,320,960,320C906.7,320,853,320,800,320C746.7,320,693,320,640,320C586.7,320,533,320,480,320C426.7,320,373,320,320,320C266.7,320,213,320,160,320C106.7,320,53,320,27,320L0,320Z"></path></svg>