<svg id="visual" viewBox="0 0 960 540" width="960" height="540" xmlns="http://www.w3.org/2000/svg" xmlns:xlink="http://www.w3.org/1999/xlink" version="1.1"><rect x="0" y="0" width="960" height="540" fill="#ffffff"></rect><path d="M0 327L137 378L274 376L411 342L549 383L686 320L823 327L960 396L960 541L823 541L686 541L549 541L411 541L274 541L137 541L0 541Z" fill="#0aa9f5"></path><path d="M0 354L137 389L274 414L411 384L549 358L686 367L823 385L960 408L960 541L823 541L686 541L549 541L411 541L274 541L137 541L0 541Z" fill="#008cda"></path><path d="M0 425L137 455L274 412L411 455L549 459L686 394L823 434L960 417L960 541L823 541L686 541L549 541L411 541L274 541L137 541L0 541Z" fill="#0070bf"></path><path d="M0 487L137 447L274 440L411 474L549 467L686 482L823 459L960 437L960 541L823 541L686 541L549 541L411 541L274 541L137 541L0 541Z" fill="#0055a3"></path><path d="M0 497L137 497L274 480L411 511L549 473L686 480L823 497L960 506L960 541L823 541L686 541L549 541L411 541L274 541L137 541L0 541Z" fill="#003b87"></path></svg>