<svg id="visual" viewBox="0 0 960 540" width="960" height="540" xmlns="http://www.w3.org/2000/svg" xmlns:xlink="http://www.w3.org/1999/xlink" version="1.1"><rect x="0" y="0" width="960" height="540" fill="#001220"></rect><path d="M0 342L22.8 341C45.7 340 91.3 338 137 334.8C182.7 331.7 228.3 327.3 274 325.5C319.7 323.7 365.3 324.3 411.2 330.5C457 336.7 503 348.3 548.8 346C594.7 343.7 640.3 327.3 686 317.7C731.7 308 777.3 305 823 307.8C868.7 310.7 914.3 319.3 937.2 323.7L960 328L960 541L937.2 541C914.3 541 868.7 541 823 541C777.3 541 731.7 541 686 541C640.3 541 594.7 541 548.8 541C503 541 457 541 411.2 541C365.3 541 319.7 541 274 541C228.3 541 182.7 541 137 541C91.3 541 45.7 541 22.8 541L0 541Z" fill="#69d0fa"></path><path d="M0 357L22.8 361.2C45.7 365.3 91.3 373.7 137 375.2C182.7 376.7 228.3 371.3 274 368.2C319.7 365 365.3 364 411.2 368.5C457 373 503 383 548.8 382.2C594.7 381.3 640.3 369.7 686 370C731.7 370.3 777.3 382.7 823 380.8C868.7 379 914.3 363 937.2 355L960 347L960 541L937.2 541C914.3 541 868.7 541 823 541C777.3 541 731.7 541 686 541C640.3 541 594.7 541 548.8 541C503 541 457 541 411.2 541C365.3 541 319.7 541 274 541C228.3 541 182.7 541 137 541C91.3 541 45.7 541 22.8 541L0 541Z" fill="#3db5f1"></path><path d="M0 389L22.8 391.3C45.7 393.7 91.3 398.3 137 406C182.7 413.7 228.3 424.3 274 426C319.7 427.7 365.3 420.3 411.2 412.8C457 405.3 503 397.7 548.8 400.8C594.7 404 640.3 418 686 420.3C731.7 422.7 777.3 413.3 823 413.3C868.7 413.3 914.3 422.7 937.2 427.3L960 432L960 541L937.2 541C914.3 541 868.7 541 823 541C777.3 541 731.7 541 686 541C640.3 541 594.7 541 548.8 541C503 541 457 541 411.2 541C365.3 541 319.7 541 274 541C228.3 541 182.7 541 137 541C91.3 541 45.7 541 22.8 541L0 541Z" fill="#0c99e7"></path><path d="M0 434L22.8 436.2C45.7 438.3 91.3 442.7 137 448.3C182.7 454 228.3 461 274 464C319.7 467 365.3 466 411.2 466.7C457 467.3 503 469.7 548.8 463.8C594.7 458 640.3 444 686 437.2C731.7 430.3 777.3 430.7 823 437.7C868.7 444.7 914.3 458.3 937.2 465.2L960 472L960 541L937.2 541C914.3 541 868.7 541 823 541C777.3 541 731.7 541 686 541C640.3 541 594.7 541 548.8 541C503 541 457 541 411.2 541C365.3 541 319.7 541 274 541C228.3 541 182.7 541 137 541C91.3 541 45.7 541 22.8 541L0 541Z" fill="#007cd8"></path><path d="M0 500L22.8 499.8C45.7 499.7 91.3 499.3 137 495.3C182.7 491.3 228.3 483.7 274 481.5C319.7 479.3 365.3 482.7 411.2 488.5C457 494.3 503 502.7 548.8 501.5C594.7 500.3 640.3 489.7 686 486C731.7 482.3 777.3 485.7 823 491.8C868.7 498 914.3 507 937.2 511.5L960 516L960 541L937.2 541C914.3 541 868.7 541 823 541C777.3 541 731.7 541 686 541C640.3 541 594.7 541 548.8 541C503 541 457 541 411.2 541C365.3 541 319.7 541 274 541C228.3 541 182.7 541 137 541C91.3 541 45.7 541 22.8 541L0 541Z" fill="#275ec5"></path></svg>