<svg id="visual" viewBox="0 0 960 540" width="960" height="540" xmlns="http://www.w3.org/2000/svg" xmlns:xlink="http://www.w3.org/1999/xlink" version="1.1"><rect x="0" y="0" width="960" height="540" fill="#ffffff"></rect><path d="M0 387L137 338L274 310L411 389L549 336L686 379L823 410L960 317L960 541L823 541L686 541L549 541L411 541L274 541L137 541L0 541Z" fill="#0aa9f5"></path><path d="M0 372L137 409L274 382L411 365L549 356L686 401L823 417L960 398L960 541L823 541L686 541L549 541L411 541L274 541L137 541L0 541Z" fill="#008cda"></path><path d="M0 447L137 436L274 455L411 388L549 421L686 423L823 449L960 389L960 541L823 541L686 541L549 541L411 541L274 541L137 541L0 541Z" fill="#0070bf"></path><path d="M0 433L137 480L274 449L411 430L549 483L686 448L823 487L960 435L960 541L823 541L686 541L549 541L411 541L274 541L137 541L0 541Z" fill="#0055a3"></path><path d="M0 509L137 493L274 495L411 471L549 489L686 520L823 485L960 475L960 541L823 541L686 541L549 541L411 541L274 541L137 541L0 541Z" fill="#003b87"></path></svg>